<svg width="24" height="24" viewBox="0 0 24 24" fill="none" xmlns="http://www.w3.org/2000/svg">
<g id="Frame 20494">
<g id="Partly Cloudy &#38; Rainy">
<path id="shape" fill-rule="evenodd" clip-rule="evenodd" d="M3.5997 9.82731C4.45066 10.6391 5.61741 11.1398 6.90461 11.1398C9.50916 11.1398 11.6206 9.08971 11.6206 6.56076C11.6206 6.15823 11.5671 5.76783 11.4666 5.3959C12.5391 4.01999 14.2715 3.12646 16.226 3.12646C19.4817 3.12646 22.1209 5.60568 22.1209 8.66394C22.1209 9.21138 22.0364 9.74026 21.8788 10.2397C22.5326 10.5846 23.0626 11.0828 23.4293 11.6972C23.7965 12.3125 23.9999 13.0443 23.9999 13.8553C23.9999 14.6663 23.7965 15.3981 23.4293 16.0134C23.0621 16.6287 22.5311 17.1274 21.8761 17.4724C21.2211 17.8173 20.4421 18.0084 19.5787 18.0084H4.84138C3.97801 18.0084 3.19897 17.8173 2.54398 17.4724C1.88898 17.1274 1.35803 16.6287 0.990827 16.0134C0.623622 15.3981 0.420166 14.6663 0.420166 13.8553C0.420166 13.0443 0.623622 12.3125 0.990827 11.6972C1.35803 11.082 1.88898 10.5832 2.54398 10.2383C2.75057 10.1295 2.96949 10.036 3.19952 9.95896C3.19657 9.93994 3.36936 9.89742 3.5997 9.82731Z" fill="url(#paint0_linear_189_190)"/>
<path id="shape_2" fill-rule="evenodd" clip-rule="evenodd" d="M5.89624 20.0879C6.06082 19.8111 6.42071 19.7147 6.70161 19.8722C6.98461 20.0308 7.07993 20.3867 6.91412 20.6656L5.9868 22.2251C5.82221 22.5019 5.46232 22.5983 5.18142 22.4408C4.89842 22.2822 4.8031 21.9263 4.96891 21.6474L5.89624 20.0879Z" fill="#B6B3BB"/>
<path id="shape_3" fill-rule="evenodd" clip-rule="evenodd" d="M11.791 20.0879C11.9556 19.8111 12.3155 19.7147 12.5964 19.8722C12.8794 20.0308 12.9747 20.3867 12.8089 20.6656L11.8816 22.2251C11.717 22.5019 11.3571 22.5983 11.0762 22.4408C10.7932 22.2822 10.6979 21.9263 10.8637 21.6474L11.791 20.0879Z" fill="#B6B3BB"/>
<path id="shape_4" fill-rule="evenodd" clip-rule="evenodd" d="M17.686 20.0879C17.8506 19.8111 18.2105 19.7147 18.4914 19.8722C18.7744 20.0308 18.8697 20.3867 18.7039 20.6656L17.7766 22.2251C17.612 22.5019 17.2521 22.5983 16.9712 22.4408C16.6882 22.2822 16.5929 21.9263 16.7587 21.6474L17.686 20.0879Z" fill="#B6B3BB"/>
<ellipse id="shape_5" cx="6.90464" cy="6.56076" rx="3.53697" ry="3.4343" fill="url(#paint1_linear_189_190)"/>
<path id="Path" fill-rule="evenodd" clip-rule="evenodd" d="M4.91524 0.14958C5.22971 0.0677622 5.55296 0.248969 5.63722 0.554316L5.94237 1.66007C6.02663 1.96542 5.84 2.27928 5.52553 2.3611C5.21105 2.44292 4.88781 2.26171 4.80355 1.95636L4.4984 0.850603C4.41414 0.545256 4.60076 0.231397 4.91524 0.14958Z" fill="url(#paint2_linear_189_190)"/>
<path id="Path_2" fill-rule="evenodd" clip-rule="evenodd" d="M9.33398 0.524996C9.62904 0.658594 9.7567 0.99915 9.61911 1.28565L9.12085 2.32316C8.98326 2.60966 8.63252 2.73361 8.33745 2.60002C8.04239 2.46642 7.91473 2.12586 8.05232 1.83936L8.55058 0.801852C8.68817 0.515351 9.03891 0.391399 9.33398 0.524996Z" fill="url(#paint3_linear_189_190)"/>
<path id="Path_3" fill-rule="evenodd" clip-rule="evenodd" d="M0.133756 6.78C0.105381 6.46509 0.345299 6.18746 0.669629 6.15991L1.84413 6.06014C2.16846 6.03259 2.45439 6.26554 2.48276 6.58046C2.51114 6.89537 2.27122 7.173 1.94689 7.20055L0.772385 7.30032C0.448055 7.32787 0.162131 7.09492 0.133756 6.78Z" fill="url(#paint4_linear_189_190)"/>
<path id="Path_4" fill-rule="evenodd" clip-rule="evenodd" d="M1.28172 2.62001C1.46846 2.36106 1.83603 2.29813 2.10273 2.47945L3.0685 3.13606C3.33519 3.31738 3.4 3.67429 3.21326 3.93323C3.02652 4.19218 2.65895 4.25512 2.39226 4.0738L1.42648 3.41719C1.15979 3.23587 1.09498 2.87896 1.28172 2.62001Z" fill="url(#paint5_linear_189_190)"/>
</g>
</g>
<defs>
<linearGradient id="paint0_linear_189_190" x1="0.610917" y1="3.12646" x2="0.610917" y2="17.7676" gradientUnits="userSpaceOnUse">
<stop stop-color="#689CFF"/>
<stop offset="1" stop-color="#37A7F4"/>
</linearGradient>
<linearGradient id="paint1_linear_189_190" x1="3.36768" y1="3.12647" x2="3.36768" y2="9.99506" gradientUnits="userSpaceOnUse">
<stop stop-color="#FFC31F"/>
<stop offset="1" stop-color="#FFB500"/>
</linearGradient>
<linearGradient id="paint2_linear_189_190" x1="4.34692" y1="0.29834" x2="4.92782" y2="2.51755" gradientUnits="userSpaceOnUse">
<stop stop-color="#FFC31F"/>
<stop offset="1" stop-color="#FFB500"/>
</linearGradient>
<linearGradient id="paint3_linear_189_190" x1="7.63354" y1="0.830811" x2="8.14621" y2="2.78936" gradientUnits="userSpaceOnUse">
<stop stop-color="#FFC31F"/>
<stop offset="1" stop-color="#FFB500"/>
</linearGradient>
<linearGradient id="paint4_linear_189_190" x1="0" y1="6.32593" x2="0.341369" y2="7.63007" gradientUnits="userSpaceOnUse">
<stop stop-color="#FFC31F"/>
<stop offset="1" stop-color="#FFB500"/>
</linearGradient>
<linearGradient id="paint5_linear_189_190" x1="1.0437" y1="2.54419" x2="1.55694" y2="4.50492" gradientUnits="userSpaceOnUse">
<stop stop-color="#FFC31F"/>
<stop offset="1" stop-color="#FFB500"/>
</linearGradient>
</defs>
</svg>
